<?xml version="1.0" standalone="no"?>
<!DOCTYPE svg PUBLIC "-//W3C//DTD SVG 20010904//EN"
 "http://www.w3.org/TR/2001/REC-SVG-20010904/DTD/svg10.dtd">
<svg version="1.0" xmlns="http://www.w3.org/2000/svg"
 width="700.000000pt" height="700.000000pt" viewBox="0 0 700.000000 700.000000"
 preserveAspectRatio="xMidYMid meet">
<metadata>
Created by potrace 1.14, written by Peter Selinger 2001-2017
</metadata>
<g transform="translate(0.000000,700.000000) scale(0.100000,-0.100000)"
fill="#000000" stroke="none">
<path d="M1210 6995 c0 -2 71 -123 157 -267 86 -145 184 -309 217 -366 34 -56
120 -200 191 -319 72 -120 135 -227 141 -238 6 -11 22 -38 36 -60 14 -22 98
-163 187 -312 89 -150 165 -273 169 -273 4 0 16 17 28 38 11 20 92 156 179
302 87 146 163 274 169 285 7 11 23 38 37 60 14 22 28 45 30 50 2 6 47 81 99
168 52 86 102 170 111 185 9 15 80 135 159 267 79 132 148 249 154 260 6 11
13 22 16 25 3 3 11 16 19 30 8 14 34 58 57 98 l43 72 -1099 0 c-605 0 -1100
-2 -1100 -5z"/>
<path d="M3652 6898 c33 -57 136 -229 228 -383 210 -353 399 -670 619 -1040
95 -159 179 -296 186 -304 15 -15 8 -23 89 112 25 43 46 80 46 83 0 3 9 17 19
32 10 15 112 185 227 377 114 193 247 415 294 495 234 389 430 720 430 725 0
3 -495 5 -1099 5 l-1100 0 61 -102z"/>
<path d="M1035 6689 c-44 -74 -165 -278 -270 -454 -328 -549 -413 -691 -433
-726 -11 -19 -85 -144 -166 -278 -80 -134 -146 -248 -146 -253 0 -4 493 -8
1095 -8 602 0 1095 3 1095 6 0 3 -80 139 -177 302 -98 164 -183 306 -189 317
-6 11 -68 117 -139 235 -147 246 -520 871 -563 944 l-29 48 -78 -133z"/>
<path d="M3486 6802 c-4 -11 -25 -48 -46 -81 -22 -34 -40 -64 -40 -67 0 -2
-11 -21 -24 -42 -21 -32 -293 -489 -594 -997 -52 -88 -105 -176 -117 -195 -25
-38 -258 -430 -263 -442 -2 -5 492 -8 1097 -8 l1102 0 -24 43 c-14 24 -45 77
-69 118 -25 41 -172 288 -328 549 -156 261 -343 575 -417 698 -73 123 -133
228 -133 233 0 5 -4 9 -10 9 -5 0 -10 4 -10 9 0 10 -95 169 -110 185 -4 4 -11
-1 -14 -12z"/>
<path d="M5869 6792 c-7 -15 -21 -38 -30 -52 -15 -22 -173 -286 -219 -365 -9
-16 -45 -77 -80 -135 -35 -58 -68 -114 -74 -125 -6 -11 -49 -83 -95 -160 -469
-785 -581 -974 -581 -979 0 -3 493 -6 1095 -6 602 0 1095 3 1095 6 0 6 -65
120 -92 162 -10 15 -21 34 -25 42 -4 8 -101 173 -216 365 -115 193 -217 364
-227 380 -9 17 -66 111 -125 210 -59 99 -115 194 -125 210 -43 75 -264 442
-275 457 -11 16 -13 15 -26 -10z"/>
<path d="M128 4852 l-127 -3 53 -77 c29 -42 181 -268 338 -502 156 -234 341
-508 409 -610 69 -102 231 -342 360 -535 129 -192 238 -354 242 -360 4 -5 79
-116 165 -245 87 -129 272 -405 412 -613 140 -208 260 -385 265 -395 6 -9 22
-33 38 -53 15 -20 27 -41 27 -47 0 -6 3 -12 8 -14 4 -2 81 -113 171 -248 402
-601 736 -1097 754 -1120 l19 -25 -7 30 c-4 17 -11 44 -15 60 -5 17 -14 57
-21 90 -7 33 -14 65 -15 70 -9 42 -116 523 -119 535 -2 8 -8 35 -14 60 -5 25
-12 56 -15 70 -3 14 -7 34 -10 45 -2 11 -16 74 -31 140 -14 66 -32 147 -40
180 -22 93 -44 191 -49 216 -3 13 -17 76 -31 139 -15 63 -29 129 -31 145 -3
17 -7 36 -10 44 -2 7 -50 217 -105 465 -56 248 -107 480 -115 516 -9 36 -17
74 -19 86 -3 12 -44 194 -91 405 -47 211 -94 422 -105 469 -31 141 -82 372
-114 515 -97 432 -126 559 -128 562 -5 4 -1879 9 -2049 5z"/>
<path d="M2482 4852 l-93 -3 5 -27 c6 -33 70 -313 91 -397 8 -33 16 -71 19
-85 3 -14 15 -65 26 -115 12 -49 23 -97 25 -105 2 -8 10 -45 19 -81 8 -37 17
-78 20 -90 2 -13 32 -143 66 -289 34 -146 64 -276 66 -290 3 -14 11 -50 19
-80 8 -30 16 -67 19 -83 3 -15 7 -35 10 -45 3 -9 7 -28 10 -42 2 -14 9 -45 16
-70 7 -25 14 -56 16 -70 3 -14 18 -81 34 -150 47 -199 179 -772 195 -850 1 -8
8 -33 13 -55 11 -40 13 -49 31 -135 5 -25 21 -93 35 -153 14 -59 28 -118 30
-130 3 -12 23 -103 46 -202 23 -99 49 -209 57 -245 17 -77 14 -65 47 -210 15
-63 30 -126 33 -140 3 -14 7 -31 9 -39 1 -7 8 -34 14 -60 6 -25 12 -55 15 -66
2 -11 27 -119 55 -240 29 -121 53 -227 55 -235 2 -8 4 -26 5 -40 1 -43 17 -2
40 101 11 52 24 110 30 129 10 38 156 679 164 720 2 14 7 32 10 40 3 8 8 26
10 40 6 32 48 219 76 335 12 50 23 99 26 110 2 11 20 90 40 175 19 85 37 164
40 175 2 11 6 29 8 40 2 11 27 119 56 240 58 248 58 245 69 300 21 97 52 233
60 265 6 19 19 76 30 125 44 194 139 611 247 1080 30 132 64 278 75 325 10 47
30 132 43 190 79 339 97 422 93 426 -5 5 -1976 11 -2125 6z"/>
<path d="M4913 4852 l-142 -3 -10 -37 c-6 -20 -39 -165 -75 -322 -36 -157 -84
-366 -106 -465 -23 -99 -44 -191 -46 -205 -3 -13 -14 -63 -25 -110 -11 -47
-22 -92 -24 -100 -2 -8 -10 -45 -19 -81 -8 -37 -17 -78 -20 -90 -2 -13 -9 -44
-16 -69 -7 -25 -14 -53 -15 -63 -2 -9 -26 -115 -54 -235 -27 -120 -52 -229
-55 -242 -12 -61 -34 -158 -44 -195 -6 -22 -13 -52 -16 -68 -3 -15 -7 -35 -10
-45 -3 -9 -7 -28 -10 -42 -3 -14 -34 -153 -71 -310 -36 -157 -67 -295 -70
-308 -2 -12 -6 -30 -9 -40 -3 -9 -7 -28 -10 -42 -9 -47 -57 -254 -61 -259 -1
-3 -6 -22 -9 -41 -7 -43 -9 -53 -36 -165 -12 -49 -24 -101 -26 -115 -3 -14
-27 -119 -54 -235 -45 -193 -186 -811 -205 -896 -2 -11 -7 -29 -10 -40 -4 -10
-4 -19 -2 -19 2 0 33 42 67 92 60 88 301 438 435 633 80 115 188 273 310 450
158 230 230 334 465 675 123 179 258 375 300 435 154 226 419 610 528 768 62
89 117 169 122 177 9 15 22 32 141 205 31 44 91 132 134 195 99 144 609 884
665 965 23 33 70 102 105 153 l64 92 -212 0 c-117 0 -554 2 -972 3 -418 1
-824 1 -902 -1z"/>
</g>
</svg>
