<svg width="350" height="150" viewBox="0 0 350 150" fill="none" xmlns="http://www.w3.org/2000/svg">
<g clip-path="url(#clip0_12_2)">
<path d="M323.5 83.2084C326.109 83.2084 328.224 81.1004 328.224 78.5C328.224 75.8996 326.109 73.7916 323.5 73.7916C320.891 73.7916 318.776 75.8996 318.776 78.5C318.776 81.1004 320.891 83.2084 323.5 83.2084Z" fill="#61DAFB"/>
<path d="M323.5 88.1465C337.499 88.1465 348.848 83.8276 348.848 78.5C348.848 73.1724 337.499 68.8535 323.5 68.8535C309.501 68.8535 298.152 73.1724 298.152 78.5C298.152 83.8276 309.501 88.1465 323.5 88.1465Z" stroke="#61DAFB"/>
<path d="M315.118 83.3232C322.118 95.4071 331.545 103.044 336.174 100.38C340.803 97.7159 338.881 85.7606 331.882 73.6768C324.882 61.5929 315.455 53.9565 310.826 56.6203C306.197 59.2841 308.119 71.2394 315.118 83.3232Z" stroke="#61DAFB"/>
<path d="M315.118 73.6768C308.119 85.7606 306.197 97.7159 310.826 100.38C315.455 103.044 324.882 95.4071 331.882 83.3232C338.881 71.2394 340.803 59.2841 336.174 56.6203C331.545 53.9565 322.118 61.5929 315.118 73.6768Z" stroke="#61DAFB"/>
</g>
<path d="M50 27.5568L65.7459 53.9773H34.2541L50 27.5568Z" fill="#0891B2"/>
<path d="M50 125L34.0909 55.6818L65.9091 55.6818L50 125Z" fill="#22D3EE"/>
<path d="M46.5909 125L6.90727e-06 55.6818L31.1124 55.6818L46.5909 125Z" fill="#0891B2"/>
<path d="M52.2727 125L100 55.6818L68.1287 55.6818L52.2727 125Z" fill="#0891B2"/>
<path d="M84.0909 27.5568L99.8368 53.9773H68.345L84.0909 27.5568Z" fill="#06B6D4"/>
<path d="M15.9091 27.5568L31.655 53.9773H0.163147L15.9091 27.5568Z" fill="#06B6D4"/>
<path d="M32.9546 51.4204L17.2086 25L48.7005 25L32.9546 51.4204Z" fill="#22D3EE"/>
<path d="M67.0455 51.4204L51.2996 25L82.7914 25L67.0455 51.4204Z" fill="#22D3EE"/>
<path d="M265.601 101.545V99.2046L286.147 69.5227V69.2727H266.738V66.6364H289.67V69.0227L269.306 98.6591V98.9091H290.488V101.545H265.601Z" fill="#22D3EE"/>
<path d="M240.908 102.295C238.893 102.295 237.045 101.894 235.363 101.091C233.696 100.288 232.355 99.1136 231.34 97.5682C230.34 96.0227 229.84 94.1439 229.84 91.9318C229.84 90.4773 230.098 89.197 230.613 88.0909C231.128 86.9848 231.923 86.0303 232.999 85.2273C234.075 84.4242 235.454 83.7651 237.135 83.25C238.817 82.7197 240.825 82.3106 243.158 82.0227C244.931 81.8106 246.514 81.6061 247.908 81.4091C249.302 81.197 250.393 80.8712 251.181 80.4318C251.984 79.9924 252.385 79.3258 252.385 78.4318V76.9773C252.385 74.4318 251.582 72.4091 249.976 70.9091C248.37 69.4091 246.158 68.6591 243.34 68.6591C240.84 68.6591 238.734 69.2121 237.022 70.3182C235.325 71.4091 234.135 72.8182 233.454 74.5455L230.84 73.5682C231.507 71.9015 232.469 70.5151 233.726 69.4091C234.999 68.303 236.454 67.4773 238.09 66.9318C239.741 66.3864 241.469 66.1136 243.272 66.1136C244.832 66.1136 246.317 66.3333 247.726 66.7727C249.151 67.2121 250.416 67.8788 251.522 68.7727C252.643 69.6667 253.529 70.8106 254.181 72.2045C254.832 73.5833 255.158 75.2348 255.158 77.1591V101.545H252.385V95.25H252.181C251.575 96.553 250.741 97.7424 249.681 98.8182C248.635 99.8788 247.37 100.727 245.885 101.364C244.416 101.985 242.757 102.295 240.908 102.295ZM241.181 99.7273C243.363 99.7273 245.295 99.197 246.976 98.1364C248.673 97.0606 249.999 95.5909 250.954 93.7273C251.908 91.8636 252.385 89.75 252.385 87.3864V82.25C252.037 82.553 251.529 82.8258 250.863 83.0682C250.211 83.2955 249.469 83.5 248.635 83.6818C247.817 83.8485 246.954 84 246.045 84.1364C245.151 84.2576 244.279 84.3712 243.431 84.4773C240.885 84.7803 238.81 85.25 237.204 85.8864C235.613 86.5076 234.446 87.3258 233.704 88.3409C232.976 89.3561 232.613 90.5833 232.613 92.0227C232.613 94.4015 233.431 96.2803 235.067 97.6591C236.704 99.0379 238.741 99.7273 241.181 99.7273Z" fill="#22D3EE"/>
<path d="M193.846 114.636V66.6364H196.55V74.4318H196.891C197.437 72.9318 198.202 71.553 199.187 70.2955C200.187 69.0379 201.421 68.0303 202.891 67.2727C204.376 66.5 206.118 66.1136 208.118 66.1136C210.937 66.1136 213.391 66.8864 215.482 68.4318C217.573 69.9773 219.194 72.1136 220.346 74.8409C221.497 77.553 222.073 80.6667 222.073 84.1818C222.073 87.697 221.49 90.8182 220.323 93.5455C219.171 96.2576 217.55 98.3939 215.459 99.9545C213.384 101.5 210.952 102.273 208.164 102.273C206.179 102.273 204.437 101.894 202.937 101.136C201.452 100.379 200.202 99.3712 199.187 98.1136C198.187 96.8409 197.421 95.447 196.891 93.9318H196.618V114.636H193.846ZM196.573 84.1591C196.573 87.1288 197.027 89.7879 197.937 92.1364C198.846 94.4697 200.149 96.3182 201.846 97.6818C203.543 99.0303 205.565 99.7045 207.914 99.7045C210.293 99.7045 212.33 99.0227 214.027 97.6591C215.74 96.2803 217.043 94.4167 217.937 92.0682C218.846 89.7197 219.3 87.0833 219.3 84.1591C219.3 81.2348 218.853 78.6061 217.959 76.2727C217.065 73.9394 215.77 72.0985 214.073 70.75C212.376 69.3864 210.323 68.7045 207.914 68.7045C205.535 68.7045 203.497 69.3788 201.8 70.7273C200.118 72.0606 198.823 73.8939 197.914 76.2273C197.02 78.5454 196.573 81.1894 196.573 84.1591Z" fill="#22D3EE"/>
<path d="M169.385 102.273C166.507 102.273 163.946 101.5 161.704 99.9545C159.461 98.3939 157.696 96.25 156.408 93.5227C155.12 90.7955 154.476 87.6894 154.476 84.2045C154.476 80.7045 155.12 77.5985 156.408 74.8864C157.696 72.1591 159.461 70.0151 161.704 68.4545C163.946 66.8939 166.507 66.1136 169.385 66.1136C172.264 66.1136 174.825 66.8939 177.067 68.4545C179.31 70.0151 181.075 72.1591 182.363 74.8864C183.651 77.6136 184.295 80.7197 184.295 84.2045C184.295 87.6894 183.651 90.7955 182.363 93.5227C181.075 96.25 179.31 98.3939 177.067 99.9545C174.825 101.5 172.264 102.273 169.385 102.273ZM169.385 99.7045C171.825 99.7045 173.954 99.0151 175.772 97.6364C177.605 96.2576 179.022 94.3939 180.022 92.0455C181.037 89.697 181.545 87.0833 181.545 84.2045C181.545 81.3258 181.037 78.7197 180.022 76.3864C179.007 74.0379 177.59 72.1742 175.772 70.7955C173.954 69.4015 171.825 68.7045 169.385 68.7045C166.946 68.7045 164.817 69.4015 162.999 70.7955C161.181 72.1742 159.764 74.0379 158.749 76.3864C157.734 78.7197 157.226 81.3258 157.226 84.2045C157.226 87.0833 157.726 89.697 158.726 92.0455C159.741 94.3939 161.158 96.2576 162.976 97.6364C164.81 99.0151 166.946 99.7045 169.385 99.7045Z" fill="#22D3EE"/>
<path d="M119.482 57.6364V55H152.096V57.6364H137.209V101.545H134.368V57.6364H119.482Z" fill="#22D3EE"/>
<defs>
<clipPath id="clip0_12_2">
<rect width="53" height="47" fill="white" transform="translate(297 55)"/>
</clipPath>
</defs>
</svg>
